<?xml version="1.0" encoding="UTF-8"?>
<svg width="20px" height="20px" viewBox="0 0 20 20" version="1.1" xmlns="http://www.w3.org/2000/svg" xmlns:xlink="http://www.w3.org/1999/xlink">
    <title>Icon/Product/Livechat</title>
    <g id="Header" stroke="none" stroke-width="1" fill="none" fill-rule="evenodd">
        <g id="header-menu/产品-客户服务" transform="translate(-325, -129)">
            <g id="dropdown-产品-客户服务" transform="translate(71, 96)">
                <g id="全渠道在线客服" transform="translate(254, 32)">
                    <g id="icon-客服机器人" transform="translate(0, 1)">
                        <rect id="矩形" fill="#000000" fill-rule="nonzero" opacity="0" x="0" y="0" width="20" height="20"></rect>
                        <g id="编组" transform="translate(3, 3)" stroke="#040F42" stroke-linecap="round" stroke-linejoin="round">
                            <path d="M6.38604914,0.0686388571 C5.152552,0.244082286 3.98331771,0.728169143 2.986792,1.47599771 C1.99027771,2.22382629 1.19872343,3.21118629 0.685557714,4.346512 C0.172389714,5.48183771 -0.0457794286,6.72836343 0.0512811429,7.97050057 C0.148342857,9.21262629 0.557489143,10.4101349 1.24078057,11.4519977 L0,14.7986263 L4.15491771,14.0474263 C5.22330629,14.5706263 6.40225486,14.828112 7.59150057,14.7979406 C8.78075771,14.7677691 9.94514629,14.4509691 10.9856491,13.8742834 C12.0262206,13.2975977 12.9120491,12.4780549 13.5679349,11.4855977 C14.2238206,10.4930949 14.6302206,9.35687771 14.7528491,8.17357486" id="Vector"></path>
                            <path d="M11.952392,5.69166629 C13.5241634,5.69166629 14.7982206,4.41754057 14.7982206,2.84583771 C14.7982206,1.27412343 13.5241634,0 11.952392,0 C10.380712,0 9.10658629,1.27412343 9.10658629,2.84583771 C9.10658629,4.41754057 10.380712,5.69166629 11.952392,5.69166629 Z" id="Vector_2"></path>
                        </g>
                    </g>
                </g>
            </g>
        </g>
    </g>
</svg>