<?xml version="1.0" encoding="UTF-8"?>
<svg width="20px" height="20px" viewBox="0 0 20 20" version="1.1" xmlns="http://www.w3.org/2000/svg" xmlns:xlink="http://www.w3.org/1999/xlink">
    <title>Icon/Product/Callbot</title>
    <g id="Header" stroke="none" stroke-width="1" fill="none" fill-rule="evenodd">
        <g id="header-menu/产品-主动营销" transform="translate(-325, -217)">
            <g id="dropdown-产品-主动营销" transform="translate(71, 96)">
                <g id="外呼语音机器人" transform="translate(254, 120)">
                    <g id="Icon/Product//Callbot" transform="translate(0, 1)">
                        <g id="icon-营销机器人" fill="#000000" fill-rule="nonzero" opacity="0">
                            <rect id="矩形" x="0" y="0" width="20" height="20"></rect>
                        </g>
                        <g id="编组" transform="translate(3, 3)" stroke="#040F42">
                            <path d="M6.08752343,13.1415397 C5.47817486,13.5346826 4.75203771,13.7059969 4.03122629,13.6266826 C3.31042629,13.5473683 2.63889486,13.2223397 2.12955771,12.7062255 L1.68428914,12.2707969 C1.48907771,12.0711397 1.37977486,11.8030255 1.37977486,11.5237112 C1.37977486,11.2445112 1.48907771,10.9763969 1.68428914,10.7766255 L3.57422057,8.90654545 C3.77222057,8.71195117 4.03872343,8.60291117 4.31633486,8.60291117 C4.59394629,8.60291117 4.86046057,8.71195117 5.05846057,8.90654545 L5.05846057,8.90654545 C5.25812914,9.10175688 5.52627771,9.21104831 5.80552343,9.21104831 C6.08476914,9.21104831 6.35291771,9.10175688 6.55258629,8.90654545 L9.52106629,5.93806545 C9.62009486,5.84047688 9.69873486,5.72416831 9.75240343,5.59591688 C9.80608343,5.46766545 9.83371771,5.33003117 9.83371771,5.19099117 C9.83371771,5.0519626 9.80608343,4.91431688 9.75240343,4.78606545 C9.69873486,4.65781403 9.62009486,4.54151688 9.52106629,4.44392831 L9.52106629,4.44392831 C9.32648343,4.24592831 9.21744343,3.97942545 9.21744343,3.70181403 C9.21744343,3.42419117 9.32648343,3.15768831 9.52106629,2.95968831 L11.4011006,1.07965403 C11.6007577,0.884442597 11.868872,0.77513974 12.1481863,0.77513974 C12.4273863,0.77513974 12.6956149,0.884442597 12.895272,1.07965403 L13.3305863,1.5249226 C13.8468149,2.03425974 14.1718434,2.70579117 14.2511577,3.4266026 C14.330472,4.14741403 14.1591577,4.87353974 13.7660149,5.48289974 C11.717672,8.50157403 9.11147771,11.1010826 6.08752343,13.1415397 L6.08752343,13.1415397 L6.08752343,13.1415397 Z" id="Vector" stroke-linecap="round" stroke-linejoin="round"></path>
                            <g id="编组-3" stroke-width="0.84">
                                <path d="M2.33333333,3.52941176 L2.33333333,4.02941176 M4.66666667,3.52941176 L4.66666667,4.02941176" id="形状结合" stroke-linecap="round"></path>
                                <line x1="3.55833333" y1="1.23430677e-15" x2="3.55833333" y2="1" id="直线备份-2" stroke-linecap="round"></line>
                                <path d="M4.52941176,1.47882353 C5.09566607,1.47882353 5.60831313,1.70834344 5.97939661,2.07942692 C6.35048009,2.4505104 6.58,2.96315746 6.58,3.52941176 L6.58,4.05298013 C6.58,4.47465503 6.40908248,4.85640999 6.13274624,5.13274624 C5.85640999,5.40908248 5.47465503,5.58 5.05298013,5.58 L1.94701987,5.58 C1.52534497,5.58 1.14359001,5.40908248 0.867253764,5.13274624 C0.590917521,4.85640999 0.42,4.47465503 0.42,4.05298013 L0.42,3.52941176 C0.42,2.96315746 0.649519906,2.4505104 1.02060339,2.07942692 C1.39168687,1.70834344 1.90433393,1.47882353 2.47058824,1.47882353 Z" id="矩形"></path>
                            </g>
                        </g>
                    </g>
                </g>
            </g>
        </g>
    </g>
</svg>