<?xml version="1.0" encoding="UTF-8"?>
<svg width="20px" height="20px" viewBox="0 0 20 20" version="1.1" xmlns="http://www.w3.org/2000/svg" xmlns:xlink="http://www.w3.org/1999/xlink">
    <title>Icon/Product/Chatbot</title>
    <g id="Header" stroke="none" stroke-width="1" fill="none" fill-rule="evenodd">
        <g id="header-menu/产品-客户服务" transform="translate(-641, -129)">
            <g id="dropdown-产品-客户服务" transform="translate(71, 96)">
                <g id="智能客服机器人" transform="translate(570, 32)">
                    <g id="icon-客服机器人" transform="translate(0, 1)">
                        <rect id="矩形" fill="#000000" fill-rule="nonzero" opacity="0" x="0" y="0" width="20" height="20"></rect>
                        <g id="编组" transform="translate(3, 4)" stroke="#040F42" stroke-linecap="round" stroke-linejoin="round">
                            <path d="M14.8571429,9.71428571 L14.8571429,0.571428571 C14.8571429,0.25584 14.6012571,0 14.2857143,0 L0.571428571,0 C0.268324571,0 0,0.26832 0,0.571428571 L0,9.71428571 C0,10.0173714 0.268324571,10.2857143 0.571428571,10.2857143 L14.2857143,10.2857143 C14.5888,10.2857143 14.8571429,10.0173714 14.8571429,9.71428571 Z" id="Vector"></path>
                            <line x1="6.28571429" y1="10.2857143" x2="5.14285714" y2="13.1428571" id="Vector_2"></line>
                            <line x1="8.57142857" y1="10.2857143" x2="9.71428571" y2="13.1428571" id="Vector_3"></line>
                            <line x1="4" y1="13.1428571" x2="10.8571429" y2="13.1428571" id="Vector_4"></line>
                            <path d="M4.63636571,6.36721143 C5.18075429,6.92089143 6.14225143,7.42843429 7.42857143,7.42843429 C8.71489143,7.42843429 9.67638857,6.92089143 10.2207771,6.36721143" id="Vector-500"></path>
                            <g id="Group-99" transform="translate(4.7858, 2.6431)">
                                <path d="M0.642982857,0.785965714 C0.485051429,0.785965714 0.357017143,0.657931429 0.357017143,0.5 C0.357017143,0.342068571 0.485051429,0.214034286 0.642982857,0.214034286" id="Ellipse-81"></path>
                                <path d="M0.642594286,0.785965714 C0.800525714,0.785965714 0.92856,0.657931429 0.92856,0.5 C0.92856,0.342068571 0.800525714,0.214034286 0.642594286,0.214034286" id="Ellipse-82"></path>
                            </g>
                            <g id="Group-100" transform="translate(8.7857, 2.6429)">
                                <path d="M0.642857143,0.785714286 C0.485062857,0.785714286 0.357142857,0.657794286 0.357142857,0.5 C0.357142857,0.342205714 0.485062857,0.214285714 0.642857143,0.214285714" id="Ellipse-81_2"></path>
                                <path d="M0.642468571,0.785714286 C0.800274286,0.785714286 0.928194286,0.657794286 0.928194286,0.5 C0.928194286,0.342205714 0.800274286,0.214285714 0.642468571,0.214285714" id="Ellipse-82_2"></path>
                            </g>
                        </g>
                    </g>
                </g>
            </g>
        </g>
    </g>
</svg>