<?xml version="1.0" encoding="UTF-8"?>
<svg width="20px" height="20px" viewBox="0 0 20 20" version="1.1" xmlns="http://www.w3.org/2000/svg" xmlns:xlink="http://www.w3.org/1999/xlink">
    <title>Icon/Product/大模型获客机器人</title>
    <g id="Header" stroke="none" stroke-width="1" fill="none" fill-rule="evenodd">
        <g id="header-menu/产品-主动营销" transform="translate(-641, -129)">
            <g id="dropdown-产品-主动营销" transform="translate(71, 96)">
                <g id="大模型获客机器人" transform="translate(570, 32)">
                    <g id="Icon/Product//大模型获客机器人" transform="translate(0, 1)">
                        <g id="icon-营销机器人" fill="#000000" fill-rule="nonzero" opacity="0">
                            <rect id="矩形" x="0" y="0" width="20" height="20"></rect>
                        </g>
                        <g id="编组" transform="translate(3, 3)" stroke="#040F42">
                            <path d="M7.61896,1.33333714 C7.61896,2.06971429 7.022,2.66666286 6.28562286,2.66666286 C5.54924571,2.66666286 4.95228571,2.06971429 4.95228571,1.33333714 C4.95228571,0.596948571 5.54924571,0 6.28562286,0 C7.022,0 7.61896,0.596948571 7.61896,1.33333714 Z" id="Ellipse-23" stroke-linecap="round" stroke-linejoin="round"></path>
                            <line x1="6.28571429" y1="2.66657143" x2="6.28571429" y2="5.238" id="Vector-857" stroke-linecap="round" stroke-linejoin="round"></line>
                            <path d="M8.28571429,11.5 C8.28571429,11.5 7.65714286,12.1666286 6.28571429,12.1666286 C4.91428571,12.1666286 4.28571429,11.5 4.28571429,11.5" id="Rectangle-175" stroke-linecap="round" stroke-linejoin="round"></path>
                            <g id="Group-625" transform="translate(3.4049, 8.1903)" stroke-linecap="round" stroke-linejoin="round">
                                <path d="M0.642857143,0.785714286 C0.485062857,0.785714286 0.357142857,0.657805714 0.357142857,0.5 C0.357142857,0.342205714 0.485062857,0.214285714 0.642857143,0.214285714" id="Vector"></path>
                                <path d="M0.642857143,0.785714286 C0.800651429,0.785714286 0.928571429,0.657805714 0.928571429,0.5 C0.928571429,0.342205714 0.800651429,0.214285714 0.642857143,0.214285714" id="Vector_2"></path>
                            </g>
                            <g id="Group-626" transform="translate(7.8809, 8.1903)" stroke-linecap="round" stroke-linejoin="round">
                                <path d="M0.642857143,0.785714286 C0.485062857,0.785714286 0.357142857,0.657805714 0.357142857,0.5 C0.357142857,0.342205714 0.485062857,0.214285714 0.642857143,0.214285714" id="Vector_3"></path>
                                <path d="M0.642857143,0.785714286 C0.800651429,0.785714286 0.928571429,0.657805714 0.928571429,0.5 C0.928571429,0.342205714 0.800651429,0.214285714 0.642857143,0.214285714" id="Vector_4"></path>
                            </g>
                            <path d="M12.5714286,10.6 C12.5714286,11.0761905 12.5714286,11.1904762 12.5714286,12.1428571 C12.5714286,13.4052571 11.5481143,14.4285714 10.2857143,14.4285714 L2.28571429,14.4285714 C1.02334857,14.4285714 0,13.4052571 0,12.1428571 L0,7.57142857 C0,6.30906286 1.02334857,5.28571429 2.28571429,5.28571429 C4.82539683,5.28571429 6.33015873,5.28571429 7.6,5.28571429" id="路径" stroke-linecap="round" stroke-linejoin="round"></path>
                            <path d="M12.533,2.653 L12.567784,2.74439609 C12.8669362,3.50846772 13.2179696,4.05389997 13.6595063,4.48807929 C14.1580767,4.97834179 14.7748083,5.32778299 15.4612542,5.50002915 C14.7824796,5.67016864 14.1724954,6.01212655 13.6808998,6.47879273 C13.1206593,7.01062263 12.7141781,7.7044214 12.5348631,8.49050621 L12.551,8.427 L12.5366624,8.36899116 C12.3548977,7.7171104 12.0364552,7.14571358 11.6184756,6.68177857 L11.4571399,6.5128929 C10.9618544,6.02391827 10.3471663,5.67337129 9.66216562,5.49997901 C10.3405619,5.32840381 10.9494079,4.98438727 11.4388438,4.5156789 C11.9982383,3.97997457 12.4016469,3.28138441 12.574632,2.49117421 L12.533,2.653 Z" id="Vector-2136" stroke-width="0.84"></path>
                        </g>
                    </g>
                </g>
            </g>
        </g>
    </g>
</svg>